<svg width="16" height="18" viewBox="0 0 16 18" fill="none" xmlns="http://www.w3.org/2000/svg">
<g id="3. Icons/ic_call">
<mask id="mask0_12021_12" style="mask-type:luminance" maskUnits="userSpaceOnUse" x="0" y="0" width="16" height="18">
<path id="Icon" fill-rule="evenodd" clip-rule="evenodd" d="M3.33234 7.84764C4.53234 10.5429 6.46567 12.7429 8.82401 14.1238L10.6573 12.0286C10.8823 11.7714 11.2157 11.6857 11.5073 11.8C12.4407 12.1524 13.449 12.3429 14.4823 12.3429C14.9407 12.3429 15.3157 12.7714 15.3157 13.2953V16.6191C15.3157 17.1429 14.9407 17.5714 14.4823 17.5714C6.65734 17.5714 0.315674 10.3238 0.315674 1.38097C0.315674 0.85716 0.690674 0.428589 1.14901 0.428589H4.06567C4.52401 0.428589 4.89901 0.85716 4.89901 1.38097C4.89901 2.57145 5.06567 3.7143 5.37401 4.78097C5.46567 5.1143 5.39901 5.48573 5.16567 5.7524L3.33234 7.84764Z" fill="white"/>
</mask>
<g mask="url(#mask0_12021_12)">
<g id="Icon Color">
<rect id="Gray 85" x="-3.68433" y="-3.38092" width="24" height="24.7619" fill="white" fill-opacity="0.5"/>
</g>
</g>
</g>
</svg>
